<svg width="105" height="60" viewBox="0 0 105 60" fill="none" xmlns="http://www.w3.org/2000/svg">
<path d="M17.9991 21.3665V25.7143H26.819V21.3665H35.0178V17.1429H43.8376V8.57143H39.3656V3.97516H35.0178V0H57.2538V3.97516H65.9494V8.57143H87.3159V12.5466H96.26V17.1429H100.359V21.3665H104.831V30.3106H100.359V34.1615H96.26V39.0062H91.9122V43.2298H87.3159V60H82.8438V56.1491H78.6202V51.677H74.024V47.4534H60.6078V51.677H56.26V56.1491H52.6575V60H48.1855V43.2298H35.0178V39.0062H22.4712V34.1615H17.9991V43.2298H13.5271V47.4534H9.17925V25.7143H4.7072V21.3665H0.359375V17.1429H13.5271V21.3665H17.9991Z" fill="#515151"/>
<path d="M65.5762 34.0373V29.6895H69.924V34.0373H65.5762Z" fill="white"/>
</svg>
